Coordinates
version=1
nRows=13
nColumns=63
inDegrees=yes

Units are S.I. units (second, meters, Newtons, ...)
If the header above contains a line with 'inDegrees', this indicates whether rotational values are in degrees (yes) or radians (no).

endheader
time	pelvis_tilt	pelvis_list	pelvis_rotation	pelvis_tx	pelvis_ty	pelvis_tz	hip_flexion_r	hip_adduction_r	hip_rotation_r	knee_angle_r	knee_angle_r_beta	ankle_angle_r	subtalar_angle_r	mtp_angle_r	hip_flexion_l	hip_adduction_l	hip_rotation_l	knee_angle_l	knee_angle_l_beta	ankle_angle_l	subtalar_angle_l	mtp_angle_l	L5_S1_Flex_Ext	L5_S1_Lat_Bending	L5_S1_axial_rotation	L4_L5_Flex_Ext	L4_L5_Lat_Bending	L4_L5_axial_rotation	L3_L4_Flex_Ext	L3_L4_Lat_Bending	L3_L4_axial_rotation	L2_L3_Flex_Ext	L2_L3_Lat_Bending	L2_L3_axial_rotation	L1_L2_Flex_Ext	L1_L2_Lat_Bending	L1_L2_axial_rotation	L1_T12_Flex_Ext	L1_T12_Lat_Bending	L1_T12_axial_rotation	Abs_r3	Abs_r2	Abs_r1	Abs_t1	Abs_t2	neck_flexion	neck_bending	neck_rotation	arm_flex_r	arm_add_r	arm_rot_r	elbow_flex_r	pro_sup_r	wrist_flex_r	wrist_dev_r	arm_flex_l	arm_add_l	arm_rot_l	elbow_flex_l	pro_sup_l	wrist_flex_l	wrist_dev_l
5.350000	3.509208	-7.302739	86.341436	0.138338	0.981656	0.346387	3.046413	1.082887	-6.609261	9.730751	0.169834	35.474025	8.108722	0.000000	3.284330	1.640137	-1.584447	11.133200	0.194311	31.208674	-8.111064	0.000000	-0.183344	0.307500	-0.529912	-0.340489	0.408974	-0.563031	-0.301216	0.747654	-0.563031	-0.209544	0.747654	-0.463673	-0.170254	0.627053	-0.430553	-0.104763	0.476317	-0.397434	-1.309610	3.478496	-2.947211	0.000000	0.000000	-7.227697	-0.296874	22.294536	-6.684138	-22.183645	44.174917	37.264231	88.883664	-11.853347	3.807429	-1.453300	-17.190504	43.225470	37.864616	78.238927	-6.052774	-0.191645
5.366667	3.578219	-7.273675	86.769104	0.136938	0.981372	0.345969	3.399631	1.127625	-5.976463	10.381206	0.181186	35.901334	6.866151	0.000000	3.147418	1.613582	-1.564341	10.869994	0.189717	31.575089	-7.207406	0.000000	-0.178314	0.326190	-0.491728	-0.331147	0.433832	-0.522461	-0.292952	0.793097	-0.522461	-0.203795	0.793097	-0.430262	-0.165582	0.665166	-0.399529	-0.101889	0.505268	-0.368796	-1.273680	3.689922	-2.734845	0.000000	0.000000	-8.089641	-0.518245	22.844302	-7.781567	-22.162499	40.993986	38.448353	88.948178	-11.924766	3.380320	-0.903867	-16.713455	44.876266	36.617170	76.415950	-7.653033	-2.234220
5.383333	3.630667	-7.240547	87.110345	0.135875	0.981159	0.345653	3.678515	1.170183	-5.382809	10.897442	0.190196	36.220931	5.772960	0.000000	3.003307	1.578211	-1.722148	10.594726	0.184913	31.986415	-6.151155	0.000000	-0.172381	0.339364	-0.453619	-0.320130	0.451354	-0.481970	-0.283206	0.825129	-0.481970	-0.197015	0.825129	-0.396916	-0.160073	0.692030	-0.368565	-0.098499	0.525674	-0.340214	-1.231304	3.838950	-2.522892	0.000000	0.000000	-8.948291	-0.677842	23.363020	-8.639765	-22.021876	38.388592	39.398735	88.863252	-11.961558	2.800808	-0.410650	-16.242471	46.461265	35.389402	74.632616	-9.076213	-4.124463
5.400000	3.654353	-7.216336	87.372694	0.135206	0.981053	0.345432	3.860125	1.207955	-4.776689	11.212616	0.195697	36.387864	4.760923	0.000000	2.875079	1.530308	-2.145208	10.328489	0.180266	32.442416	-4.821464	0.000000	-0.163901	0.345182	-0.410489	-0.304381	0.459091	-0.436144	-0.269274	0.839274	-0.436144	-0.187323	0.839274	-0.359178	-0.152199	0.703894	-0.333522	-0.093653	0.534686	-0.307866	-1.170732	3.904763	-2.283015	0.000000	0.000000	-9.752427	-0.759111	23.817911	-9.358457	-21.748069	36.016720	40.173709	88.714101	-11.805577	2.224979	0.087249	-15.845116	48.217883	34.165010	72.846750	-10.348308	-5.989724
5.416667	3.633995	-7.208773	87.516902	0.135007	0.981093	0.345306	3.935391	1.224909	-4.298943	11.294998	0.197135	36.409484	4.048785	0.000000	2.760788	1.488696	-2.793387	10.053975	0.175475	32.870298	-3.349033	0.000000	-0.152957	0.341232	-0.356783	-0.284057	0.453838	-0.379082	-0.251294	0.829671	-0.379082	-0.174815	0.829671	-0.312185	-0.142036	0.695840	-0.289886	-0.087400	0.528568	-0.267587	-1.092560	3.860082	-1.984320	0.000000	0.000000	-10.445445	-0.733718	24.193003	-9.925471	-21.372363	33.977673	40.796346	88.448091	-11.537407	1.618311	0.537380	-15.548780	49.962718	33.103778	71.285522	-11.561267	-7.518167
5.433333	3.565064	-7.218841	87.572570	0.135273	0.981306	0.345256	3.888377	1.218533	-3.929128	11.122458	0.194124	36.276811	3.577068	0.000000	2.666069	1.447433	-3.765844	9.785408	0.170788	33.293008	-1.550202	0.000000	-0.139389	0.326598	-0.291782	-0.258860	0.434375	-0.310018	-0.229002	0.794090	-0.310018	-0.159308	0.794090	-0.255309	-0.129437	0.665998	-0.237073	-0.079647	0.505900	-0.218836	-0.995642	3.694540	-1.622802	0.000000	0.000000	-11.007809	-0.584808	24.449661	-10.383214	-20.919177	32.217576	41.347809	88.092847	-11.180982	1.110827	1.117722	-15.434459	52.256707	32.172632	69.539137	-12.711641	-8.874273
5.450000	3.450742	-7.260960	87.513585	0.135954	0.981644	0.345265	3.732353	1.184522	-3.745422	10.690860	0.186591	36.011525	3.487784	0.000000	2.610988	1.447436	-4.634755	9.532646	0.166376	33.573278	-0.085647	0.000000	-0.122819	0.302989	-0.215951	-0.228087	0.402976	-0.229448	-0.201779	0.736689	-0.229448	-0.140369	0.736689	-0.188957	-0.114049	0.617856	-0.175460	-0.070179	0.469331	-0.161964	-0.877281	3.427477	-1.201057	0.000000	0.000000	-11.388827	-0.342661	24.592041	-10.841064	-20.459305	30.330618	41.967028	87.688410	-10.695284	0.807095	1.627322	-15.471053	54.301454	31.523991	68.383826	-13.600707	-9.654332
5.466667	3.310472	-7.336606	87.362517	0.137015	0.982097	0.345336	3.479959	1.143301	-3.747552	10.026246	0.174991	35.617378	3.732508	0.000000	2.592784	1.467519	-5.396957	9.293313	0.162199	33.695942	1.063981	0.000000	-0.104175	0.273246	-0.138232	-0.193463	0.363418	-0.146872	-0.171149	0.664371	-0.146872	-0.119061	0.664371	-0.120953	-0.096737	0.557204	-0.112314	-0.059525	0.423259	-0.103674	-0.744109	3.091017	-0.768805	0.000000	0.000000	-11.583616	-0.029964	24.654209	-11.263016	-19.997160	28.464643	42.641660	87.233510	-10.125236	0.713442	2.048891	-15.663507	56.086151	31.171722	67.816602	-14.306240	-10.005933
5.483333	3.151928	-7.425445	87.098419	0.138446	0.982644	0.345480	3.125697	1.093009	-3.933309	9.156570	0.159812	35.120240	4.359961	0.000000	2.610372	1.485736	-6.198972	9.125077	0.159263	33.727194	2.056440	0.000000	-0.087239	0.238446	-0.061496	-0.162012	0.317133	-0.065340	-0.143325	0.579757	-0.065340	-0.099706	0.579757	-0.053809	-0.081010	0.486238	-0.049966	-0.049848	0.369352	-0.046122	-0.623141	2.697345	-0.342024	0.000000	0.000000	-11.602738	0.334170	24.626432	-11.570800	-19.545630	26.805390	43.323670	86.838462	-9.443001	0.814594	2.368083	-16.006624	57.586845	31.142162	67.744834	-14.874857	-9.981334
5.500000	3.008002	-7.552510	86.759883	0.140118	0.983174	0.345720	2.729958	1.063877	-4.240893	8.152079	0.142281	34.534399	5.220992	0.000000	2.700901	1.490905	-6.815480	9.044707	0.157860	33.630597	2.609348	0.000000	-0.069748	0.204756	0.006241	-0.129529	0.272325	0.006631	-0.114589	0.497843	0.006631	-0.079715	0.497843	0.005461	-0.064768	0.417538	0.005071	-0.039854	0.317166	0.004681	-0.498204	2.316236	0.034710	0.000000	0.000000	-11.430486	0.694386	24.547238	-11.769948	-19.139858	25.415648	43.968488	86.456913	-8.911775	0.962472	2.529971	-16.448796	58.574717	31.417454	68.276937	-15.185201	-9.630139
5.516667	2.886059	-7.685709	86.333875	0.141982	0.983659	0.346076	2.294129	1.063303	-4.497049	7.073890	0.123463	33.865885	6.104884	0.000000	2.829472	1.488322	-7.180555	9.054527	0.158031	33.399109	2.615073	0.000000	-0.056640	0.173808	0.073468	-0.105186	0.231164	0.078059	-0.093054	0.422596	0.078059	-0.064734	0.422596	0.064284	-0.052596	0.354429	0.059693	-0.032364	0.269228	0.055101	-0.404574	1.966149	0.408605	0.000000	0.000000	-11.102937	1.037673	24.379037	-11.810884	-18.794509	24.426764	44.495486	86.145333	-8.466302	1.122558	2.646595	-17.012450	59.424380	31.954084	69.031371	-15.459440	-9.007300
5.533333	2.788565	-7.806575	85.833630	0.143981	0.984032	0.346496	1.810615	1.078273	-4.815451	5.953275	0.103904	33.178339	7.171259	0.000000	2.978098	1.476111	-7.320684	9.170004	0.160047	33.091456	2.148366	0.000000	-0.048987	0.146424	0.140388	-0.090973	0.194743	0.149162	-0.080480	0.356014	0.149162	-0.055987	0.356014	0.122839	-0.045489	0.298587	0.114065	-0.027991	0.226810	0.105291	-0.349907	1.656372	0.780794	0.000000	0.000000	-10.679978	1.344670	24.114149	-11.660941	-18.509318	23.949305	44.820622	85.897751	-8.107447	1.259679	2.654507	-17.638365	59.799531	32.775123	70.258187	-15.426618	-7.892438
5.550000	2.748401	-7.928539	85.284123	0.146004	0.984238	0.347039	1.348639	1.143209	-5.098749	4.892166	0.085384	32.486399	8.238177	0.000000	3.164940	1.421169	-7.265856	9.391273	0.163909	32.744737	1.282380	0.000000	-0.045496	0.128219	0.211157	-0.084491	0.170532	0.224354	-0.074746	0.311753	0.224354	-0.051998	0.311753	0.184762	-0.042248	0.261465	0.171565	-0.025997	0.198612	0.158368	-0.324975	1.450444	1.174393	0.000000	0.000000	-10.190370	1.601170	23.784288	-11.325237	-18.299830	24.043751	44.866431	85.714314	-8.015258	1.134880	2.654122	-18.261733	60.016189	33.682671	71.483525	-15.214261	-6.717648
